<?xml version="1.0" standalone="no"?><!DOCTYPE svg PUBLIC "-//W3C//DTD SVG 1.1//EN" "http://www.w3.org/Graphics/SVG/1.1/DTD/svg11.dtd"><svg t="1576056941790" class="icon" viewBox="0 0 1024 1024" version="1.1" xmlns="http://www.w3.org/2000/svg" p-id="1152" xmlns:xlink="http://www.w3.org/1999/xlink" width="200" height="200"><defs><style type="text/css"></style></defs><path d="M859.428571 146.285714v512a18.285714 18.285714 0 0 1-5.339428 12.946286l-219.428572 219.428571A18.285714 18.285714 0 0 1 621.714286 896H182.857143a18.285714 18.285714 0 0 1-18.285714-18.285714V146.285714a18.285714 18.285714 0 0 1 18.285714-18.285714h658.285714a18.285714 18.285714 0 0 1 18.285714 18.285714z m-36.571428 18.285715h-621.714286v694.857142h413.001143l208.713143-208.713142V164.571429zM365.714286 347.428571a18.285714 18.285714 0 0 1 0-36.571428h292.571428a18.285714 18.285714 0 1 1 0 36.571428h-292.571428z m0 146.285715a18.285714 18.285714 0 1 1 0-36.571429h292.571428a18.285714 18.285714 0 1 1 0 36.571429h-292.571428z m274.285714 182.857143V768a18.285714 18.285714 0 1 1-36.571429 0v-109.714286a18.285714 18.285714 0 0 1 18.285715-18.285714h109.714285a18.285714 18.285714 0 1 1 0 36.571429h-91.428571z" p-id="1153" fill="#8c8c8c"></path></svg>