<?xml version="1.0" standalone="no"?><!DOCTYPE svg PUBLIC "-//W3C//DTD SVG 1.1//EN" "http://www.w3.org/Graphics/SVG/1.1/DTD/svg11.dtd"><svg t="1575858212383" class="icon" viewBox="0 0 1024 1024" version="1.1" xmlns="http://www.w3.org/2000/svg" p-id="5254" xmlns:xlink="http://www.w3.org/1999/xlink" width="200" height="200"><defs><style type="text/css"></style></defs><path d="M512 64C264.64 64 64 264.576 64 512c0 247.36 200.64 448 448 448 247.424 0 448-200.64 448-448C960 264.576 759.424 64 512 64zM734.272 553.216l-181.12-0.064 0 181.184c0 23.488-18.368 42.624-41.152 42.624-22.72 0.064-41.152-19.072-41.152-42.56L470.848 553.152l-181.12 0C266.24 553.216 246.976 534.656 246.976 512.064c0.128-22.656 19.264-41.152 42.88-41.088l180.992 0L470.848 289.792c0-23.68 18.496-42.688 41.152-42.752 22.72-0.064 41.152 19.136 41.152 42.688l0 181.248 181.12 0c23.616-0.128 42.752 18.432 42.752 41.152C777.024 534.656 758.016 553.216 734.272 553.216z" p-id="5255"></path></svg>